<svg width="226" height="167" viewBox="0 0 226 167" fill="none" xmlns="http://www.w3.org/2000/svg">
<g filter="url(#filter0_d_353_4458)">
<rect x="21.3229" y="21.3229" width="182.562" height="124.354" rx="14.5521" fill="#1F72CD" stroke="#D9D9D9" stroke-width="2.64583"/>
<path fill-rule="evenodd" clip-rule="evenodd" d="M53.2035 64.9792L35.875 103.327H56.6196L59.1913 97.2124H65.0697L67.6415 103.327H90.4755V98.6601L92.5101 103.327H104.322L106.356 98.5614V103.327H153.845L159.619 97.3712L165.026 103.327L189.417 103.376L172.034 84.26L189.417 64.9792H165.404L159.783 70.8246L154.547 64.9792H102.885L98.4493 74.877L93.909 64.9792H73.2077V69.487L70.9048 64.9792H53.2035ZM124.118 70.4246H151.388L159.729 79.434L168.338 70.4246H176.679L164.006 84.2545L176.679 97.9251H167.96L159.619 88.811L150.966 97.9251H124.118V70.4246ZM130.852 81.1454V76.1222V76.1174H147.868L155.293 84.1507L147.539 92.228H130.852V86.7441H145.729V81.1454H130.852ZM57.2174 70.4246H67.3293L78.8233 96.4281V70.4246H89.9005L98.7782 89.069L106.96 70.4246H117.982V97.9413H111.275L111.221 76.3794L101.443 97.9413H95.4439L85.6117 76.3794V97.9413H71.8148L69.1992 91.7724H55.0679L52.4577 97.9359H45.0655L57.2174 70.4246ZM57.4809 86.0693L62.1366 75.08L66.7869 86.0693H57.4809Z" fill="white"/>
</g>
<defs>
<filter id="filter0_d_353_4458" x="0" y="0" width="225.208" height="167" filterUnits="userSpaceOnUse" color-interpolation-filters="sRGB">
<feFlood flood-opacity="0" result="BackgroundImageFix"/>
<feColorMatrix in="SourceAlpha" type="matrix" values="0 0 0 0 0 0 0 0 0 0 0 0 0 0 0 0 0 0 127 0" result="hardAlpha"/>
<feOffset/>
<feGaussianBlur stdDeviation="10"/>
<feComposite in2="hardAlpha" operator="out"/>
<feColorMatrix type="matrix" values="0 0 0 0 0 0 0 0 0 0 0 0 0 0 0 0 0 0 0.07 0"/>
<feBlend mode="normal" in2="BackgroundImageFix" result="effect1_dropShadow_353_4458"/>
<feBlend mode="normal" in="SourceGraphic" in2="effect1_dropShadow_353_4458" result="shape"/>
</filter>
</defs>
</svg>
