<svg width="226" height="167" viewBox="0 0 226 167" fill="none" xmlns="http://www.w3.org/2000/svg">
<g filter="url(#filter0_d_353_4603)">
<rect x="21.3229" y="21.3229" width="182.562" height="124.354" rx="14.5521" fill="white" stroke="#D9D9D9" stroke-width="2.64583"/>
<path d="M97.9684 144.354L202.479 113.927V131.125C202.479 138.431 196.556 144.354 189.25 144.354H97.9684Z" fill="#FD6020"/>
<path fill-rule="evenodd" clip-rule="evenodd" d="M182.642 70.8573C188.392 70.8573 191.554 73.416 191.554 78.2492C191.842 81.9452 189.254 85.0725 185.804 85.6411L193.567 96.1604H187.529L180.917 85.9254H180.342V96.1604H175.455V70.8573H182.642ZM180.342 82.5138H181.78C184.942 82.5138 186.38 81.0923 186.38 78.5336C186.38 76.2591 184.942 74.8376 181.78 74.8376H180.342V82.5138ZM158.494 96.1604H172.293V91.8959H163.381V85.0725H172.005V80.808H163.381V75.1219H172.293V70.8573H158.494V96.1604ZM144.119 87.9156L137.507 70.8573H132.332L142.969 96.729H145.557L156.194 70.8573H151.019L144.119 87.9156ZM85.7599 83.6511C85.7599 90.7587 91.5096 96.7291 98.6967 96.7291C100.997 96.7291 103.009 96.1605 105.021 95.3076V89.6215C103.584 91.3273 101.572 92.4645 99.2717 92.4645C94.6719 92.4645 90.9346 89.0529 90.9346 84.504V83.9354C90.6471 79.3865 94.3844 75.4062 98.9842 75.1219C101.284 75.1219 103.584 76.2591 105.021 77.965V72.2789C103.296 71.1416 100.997 70.8573 98.9842 70.8573C91.5096 70.2887 85.7599 76.2591 85.7599 83.6511ZM76.8479 80.5237C73.973 79.3865 73.1106 78.8179 73.1106 77.3963C73.398 75.6905 74.8355 74.269 76.5604 74.5533C77.9978 74.5533 79.4352 75.4062 80.5852 76.5434L83.1725 73.1318C81.1601 71.4259 78.5728 70.2887 75.9854 70.2887C71.9606 70.0044 68.5108 73.1318 68.2233 77.112V77.3963C68.2233 80.808 69.6607 82.7981 74.2605 84.2197C75.4104 84.504 76.5604 85.0726 77.7103 85.6412C78.5728 86.2098 79.1477 87.0627 79.1477 88.1999C79.1477 90.1901 77.4228 91.8959 75.6979 91.8959H75.4104C73.1106 91.8959 71.0982 90.4744 70.2357 88.4842L67.0734 91.6116C68.7983 94.739 72.2481 96.4448 75.6979 96.4448C80.2977 96.7291 84.035 93.3174 84.3225 88.7685V87.9156C84.035 84.504 82.5976 82.7981 76.8479 80.5237ZM60.1738 96.1604H65.061V70.8573H60.1738V96.1604ZM37.4625 70.8573H44.6496H46.087C52.9866 71.1416 58.4488 76.8277 58.1614 83.651C58.1614 87.347 56.4364 90.7586 53.5616 93.3174C50.9742 95.3075 47.8119 96.4447 44.6496 96.1604H37.4625V70.8573ZM43.7872 91.896C46.087 92.1803 48.6744 91.3274 50.3993 89.9059C52.1242 88.2001 52.9867 85.9256 52.9867 83.3669C52.9867 81.0924 52.1242 78.818 50.3993 77.1122C48.6744 75.6906 46.087 74.8377 43.7872 75.122H42.3497V91.896H43.7872Z" fill="black"/>
<path fill-rule="evenodd" clip-rule="evenodd" d="M119.683 70.2708C112.496 70.2708 106.459 75.9569 106.459 83.3488C106.459 90.4564 112.209 96.4268 119.683 96.7111C127.158 96.9954 132.907 91.025 133.195 83.6331C132.907 76.2412 127.158 70.2708 119.683 70.2708V70.2708Z" fill="#FD6020"/>
</g>
<defs>
<filter id="filter0_d_353_4603" x="0" y="0" width="225.208" height="167" filterUnits="userSpaceOnUse" color-interpolation-filters="sRGB">
<feFlood flood-opacity="0" result="BackgroundImageFix"/>
<feColorMatrix in="SourceAlpha" type="matrix" values="0 0 0 0 0 0 0 0 0 0 0 0 0 0 0 0 0 0 127 0" result="hardAlpha"/>
<feOffset/>
<feGaussianBlur stdDeviation="10"/>
<feComposite in2="hardAlpha" operator="out"/>
<feColorMatrix type="matrix" values="0 0 0 0 0 0 0 0 0 0 0 0 0 0 0 0 0 0 0.07 0"/>
<feBlend mode="normal" in2="BackgroundImageFix" result="effect1_dropShadow_353_4603"/>
<feBlend mode="normal" in="SourceGraphic" in2="effect1_dropShadow_353_4603" result="shape"/>
</filter>
</defs>
</svg>
