<svg width="226" height="167" viewBox="0 0 226 167" fill="none" xmlns="http://www.w3.org/2000/svg">
<g filter="url(#filter0_d_353_4628)">
<rect x="21.3229" y="21.3229" width="182.562" height="124.354" rx="14.5521" fill="white" stroke="#D9D9D9" stroke-width="2.64583"/>
<path fill-rule="evenodd" clip-rule="evenodd" d="M107.472 103.386V87.4005H115.723C119.104 87.4005 121.957 86.2676 124.283 84.0334L124.842 83.467C129.091 78.8411 128.812 71.6349 124.283 67.3552C122.019 65.0895 118.917 63.8622 115.723 63.9252H102.478V103.386H107.472ZM107.473 82.5544V68.7713H115.849C117.648 68.7713 119.354 69.4636 120.626 70.7224C123.325 73.3657 123.387 77.7713 120.781 80.509C119.509 81.8621 117.71 82.6174 115.849 82.5544H107.473ZM148.136 78.4949C145.996 76.5124 143.08 75.5054 139.389 75.5054C134.643 75.5054 131.076 77.2676 128.719 80.7606L133.123 83.5613C134.736 81.1697 136.939 79.9739 139.73 79.9739C141.498 79.9739 143.204 80.6347 144.538 81.8305C145.841 82.9634 146.585 84.5997 146.585 86.3305V87.4948C144.662 86.4249 142.243 85.8585 139.265 85.8585C135.791 85.8585 132.999 86.6766 130.921 88.3445C128.843 90.0123 127.788 92.2151 127.788 95.0157C127.726 97.5647 128.812 99.9877 130.735 101.624C132.689 103.386 135.171 104.267 138.086 104.267C141.529 104.267 144.259 102.725 146.337 99.6416H146.554V103.386H151.331V86.7396C151.331 83.2466 150.276 80.4774 148.136 78.4949ZM134.582 98.4145C133.558 97.6592 132.938 96.432 132.938 95.1103C132.938 93.6313 133.62 92.404 134.954 91.4285C136.319 90.453 138.026 89.9495 140.042 89.9495C142.834 89.918 145.006 90.5474 146.557 91.8061C146.557 93.946 145.719 95.8026 144.075 97.376C142.586 98.8865 140.569 99.7361 138.46 99.7361C137.064 99.7676 135.699 99.2956 134.582 98.4145ZM162.063 115.25L178.75 76.3865H173.322L165.599 95.7709H165.506L157.596 76.3865H152.168L163.117 101.656L156.914 115.25H162.063Z" fill="#3C4043"/>
<path d="M90.2316 83.9389C90.2316 82.3969 90.1075 80.855 89.8594 79.3445H68.7986V88.0612H80.8644C80.3681 90.8619 78.7552 93.3793 76.3978 94.9527V100.617H83.5939C87.8123 96.6835 90.2316 90.8619 90.2316 83.9389Z" fill="#4285F4"/>
<path d="M68.7995 106.093C74.8169 106.093 79.9038 104.079 83.5948 100.617L76.3988 94.9528C74.3827 96.3374 71.8082 97.1242 68.7995 97.1242C62.9683 97.1242 58.0365 93.1277 56.2685 87.7781H48.8553V93.6312C52.6395 101.278 60.3628 106.093 68.7995 106.093Z" fill="#34A853"/>
<path d="M56.2692 87.7781C55.3385 84.9774 55.3385 81.925 56.2692 79.0929V73.2712H48.8549C45.6595 79.6593 45.6595 87.2117 48.8549 93.5997L56.2692 87.7781Z" fill="#FBBC04"/>
<path d="M68.7995 69.7469C71.9943 69.684 75.0651 70.9113 77.3603 73.1455L83.7499 66.663C79.6866 62.8239 74.3517 60.7155 68.7995 60.7785C60.3628 60.7785 52.6395 65.6246 48.8553 73.2714L56.2685 79.1245C58.0365 73.7434 62.9683 69.7469 68.7995 69.7469Z" fill="#EA4335"/>
</g>
<defs>
<filter id="filter0_d_353_4628" x="0" y="0" width="225.208" height="167" filterUnits="userSpaceOnUse" color-interpolation-filters="sRGB">
<feFlood flood-opacity="0" result="BackgroundImageFix"/>
<feColorMatrix in="SourceAlpha" type="matrix" values="0 0 0 0 0 0 0 0 0 0 0 0 0 0 0 0 0 0 127 0" result="hardAlpha"/>
<feOffset/>
<feGaussianBlur stdDeviation="10"/>
<feComposite in2="hardAlpha" operator="out"/>
<feColorMatrix type="matrix" values="0 0 0 0 0 0 0 0 0 0 0 0 0 0 0 0 0 0 0.07 0"/>
<feBlend mode="normal" in2="BackgroundImageFix" result="effect1_dropShadow_353_4628"/>
<feBlend mode="normal" in="SourceGraphic" in2="effect1_dropShadow_353_4628" result="shape"/>
</filter>
</defs>
</svg>
